<?xml version="1.0" encoding="UTF-8" standalone="no" ?>
<!DOCTYPE svg PUBLIC "-//W3C//DTD SVG 1.1//EN" "http://www.w3.org/Graphics/SVG/1.1/DTD/svg11.dtd">
<svg xmlns="http://www.w3.org/2000/svg" xmlns:xlink="http://www.w3.org/1999/xlink" version="1.1" width="800" height="640" viewBox="0 0 800 640" xml:space="preserve">
<desc>Created with Fabric.js 4.6.0</desc>
<defs>
</defs>
<g transform="matrix(0.25 0 0 0.25 34.94 33.59)" id="01vF9-TbrxE0dMKdHuQ2G"  >
<g style="" vector-effect="non-scaling-stroke"   >
		<g transform="matrix(-1.39 0 0 -1.39 0 0)" id="12hYBAaJryf8vlodEMbxY"  >
<path style="stroke: rgb(83,40,143); stroke-width: 0; stroke-dasharray: none; stroke-linecap: butt; stroke-dashoffset: 0; stroke-linejoin: miter; stroke-miterlimit: 4; fill: rgb(255,218,18); fill-rule: nonzero; opacity: 1;" vector-effect="non-scaling-stroke"  transform=" translate(0, 0)" d="M 0 -71.53076 C 39.48498 -71.53076 71.53076 -39.48498 71.53076 0 C 71.53076 39.48498 39.48498 71.53076 0 71.53076 C -39.48498 71.53076 -71.53076 39.48498 -71.53076 0 C -71.53076 -39.48498 -39.48498 -71.53076 0 -71.53076 z" stroke-linecap="round" />
</g>
		<g transform="matrix(1 0 0 1 64.26 43.04)" id="KBP7X5avCvNETaRNggPhe"  >
<path style="stroke: rgb(0,0,0); stroke-width: 1; stroke-dasharray: none; stroke-linecap: round; stroke-dashoffset: 0; stroke-linejoin: round; stroke-miterlimit: 10; fill: none; fill-rule: nonzero; opacity: 1;" vector-effect="non-scaling-stroke"  transform=" translate(-212.8, -178.67)" d="M 212.80300572246063 178.67008930213467 L 212.80500572246063 178.67008930213467" stroke-linecap="round" />
</g>
		<g transform="matrix(-0.16 0.09 -0.11 -0.19 9.99 -27.35)" id="usBsUemBjRf5CcfglIAEt"  >
<path style="stroke: rgb(0,0,0); stroke-width: 0; stroke-dasharray: none; stroke-linecap: butt; stroke-dashoffset: 0; stroke-linejoin: miter; stroke-miterlimit: 4; fill: rgb(255,255,255); fill-rule: nonzero; opacity: 1;" vector-effect="non-scaling-stroke"  transform=" translate(0, 0)" d="M -70.72514 33.07742 L -56.54913 30.700399999999995 L -40.996159999999996 26.707619999999995 L -22.979549999999996 23.474819999999994 L -0.9303699999999964 21.466189999999994 L 16.476280000000003 23.314519999999995 L 35.15397 29.088179999999994 L 53.61759 33.73313999999999 L 69.59857 38.45334999999999 L 70.72515999999999 19.33655999999999 L 65.89862 3.2155499999999932 L 60.176159999999996 -6.664510000000007 L 53.738389999999995 -14.532890000000007 L 48.48578 -20.119100000000007 L 42.98578 -24.119100000000007 L 37.73578 -27.619100000000007 L 31.98578 -30.869100000000007 L 24.98578 -33.6191 L 19.40363 -35.8691 L 12.98578 -37.1191 L 6.48578 -38.45333 L -2.26422 -38.45333 L -4.76422 -38.45333 L -9.18089 -38.45333 L -15.59756 -37.1191 L -22.764229999999998 -34.8691 L -28.514229999999998 -32.1191 L -34.01423 -29.119100000000003 L -38.26423 -26.369100000000003 L -43.26423 -23.119100000000003 L -47.01423 -20.119100000000003 L -51.26423 -15.619100000000003 L -56.26423 -11.078980000000003 L -60.01423 -4.619100000000003 L -63.76423 3.2155599999999973 L -66.76423 9.630899999999997 L -68.51423 15.630899999999997 L -69.8918 22.630899999999997 L -70.72513000000001 27.964229999999997 z" stroke-linecap="round" />
</g>
		<g transform="matrix(0.09 -0.05 0.05 0.1 -14.34 -40.1)" id="D0a3ntMfJf3MByCTbRt20"  >
<path style="stroke: rgb(0,0,0); stroke-width: 0; stroke-dasharray: none; stroke-linecap: butt; stroke-dashoffset: 0; stroke-linejoin: miter; stroke-miterlimit: 4; fill: rgb(255,255,255); fill-rule: nonzero; opacity: 1;" vector-effect="non-scaling-stroke"  transform=" translate(0, 0)" d="M -71.53076 35.76538 L -60.81985 33.55616 L -47.81985 33.55616 L -34.81985 30.652179999999998 L -16.403180000000003 27.890649999999997 L 0.000009999999996068709 27.890649999999997 L 18.598009999999995 27.890649999999997 L 33.91144 30.652179999999998 L 51.552 33.55616 L 65.093 35.76538 L 71.53077 35.76538 L 69.91954 22.02451 L 65.093 5.903500000000001 L 59.370540000000005 -3.976559999999999 L 52.932770000000005 -11.84494 L 47.68016000000001 -17.43115 L 42.18016000000001 -21.43115 L 36.93016000000001 -24.93115 L 31.180160000000008 -28.18115 L 24.180160000000008 -30.93115 L 18.59801000000001 -33.18115 L 12.18016000000001 -34.43115 L 5.68016000000001 -35.76538 L -3.0698399999999904 -35.76538 L -5.56983999999999 -35.76538 L -9.98650999999999 -35.76538 L -16.403179999999992 -34.43115 L -23.56984999999999 -32.18115 L -29.31984999999999 -29.431150000000002 L -34.81984999999999 -26.431150000000002 L -39.06984999999999 -23.681150000000002 L -44.06984999999999 -20.431150000000002 L -47.81984999999999 -17.431150000000002 L -52.06984999999999 -12.931150000000002 L -57.06984999999999 -8.391030000000002 L -60.81984999999999 -1.9311500000000024 L -64.56984999999999 5.903509999999998 L -67.56984999999999 12.318849999999998 L -69.31984999999999 18.318849999999998 L -70.69742 25.318849999999998 L -71.53075 30.652179999999998 z" stroke-linecap="round" />
</g>
		<g transform="matrix(0.09 -0.05 0.05 0.1 7.66 -54.03)" id="ubUpOcVqP6Szi7P6_DBbR"  >
<path style="stroke: rgb(0,0,0); stroke-width: 0; stroke-dasharray: none; stroke-linecap: butt; stroke-dashoffset: 0; stroke-linejoin: miter; stroke-miterlimit: 4; fill: rgb(255,255,255); fill-rule: nonzero; opacity: 1;" vector-effect="non-scaling-stroke"  transform=" translate(0, 0)" d="M -71.53076 35.76538 L -60.81985 33.55616 L -47.81985 33.55616 L -34.81985 30.652179999999998 L -16.403180000000003 27.890649999999997 L 0.000009999999996068709 27.890649999999997 L 18.598009999999995 27.890649999999997 L 33.91144 30.652179999999998 L 51.552 33.55616 L 65.093 35.76538 L 71.53077 35.76538 L 69.91954 22.02451 L 65.093 5.903500000000001 L 59.370540000000005 -3.976559999999999 L 52.932770000000005 -11.84494 L 47.68016000000001 -17.43115 L 42.18016000000001 -21.43115 L 36.93016000000001 -24.93115 L 31.180160000000008 -28.18115 L 24.180160000000008 -30.93115 L 18.59801000000001 -33.18115 L 12.18016000000001 -34.43115 L 5.68016000000001 -35.76538 L -3.0698399999999904 -35.76538 L -5.56983999999999 -35.76538 L -9.98650999999999 -35.76538 L -16.403179999999992 -34.43115 L -23.56984999999999 -32.18115 L -29.31984999999999 -29.431150000000002 L -34.81984999999999 -26.431150000000002 L -39.06984999999999 -23.681150000000002 L -44.06984999999999 -20.431150000000002 L -47.81984999999999 -17.431150000000002 L -52.06984999999999 -12.931150000000002 L -57.06984999999999 -8.391030000000002 L -60.81984999999999 -1.9311500000000024 L -64.56984999999999 5.903509999999998 L -67.56984999999999 12.318849999999998 L -69.31984999999999 18.318849999999998 L -70.69742 25.318849999999998 L -71.53075 30.652179999999998 z" stroke-linecap="round" />
</g>
</g>
</g>
<g transform="matrix(0.25 0 0 0.25 781.15 583.35)" id="qXQKEcqE678mbcUlRnBx0"  >
<g style="" vector-effect="non-scaling-stroke"   >
		<g transform="matrix(-1.39 0 0 -1.39 0 0)" id="HsWZLaO3EbWu4irT8ZDCI"  >
<path style="stroke: rgb(83,40,143); stroke-width: 0; stroke-dasharray: none; stroke-linecap: butt; stroke-dashoffset: 0; stroke-linejoin: miter; stroke-miterlimit: 4; fill: rgb(255,218,18); fill-rule: nonzero; opacity: 1;" vector-effect="non-scaling-stroke"  transform=" translate(0, 0)" d="M 0 -71.53076 C 39.48498 -71.53076 71.53076 -39.48498 71.53076 0 C 71.53076 39.48498 39.48498 71.53076 0 71.53076 C -39.48498 71.53076 -71.53076 39.48498 -71.53076 0 C -71.53076 -39.48498 -39.48498 -71.53076 0 -71.53076 z" stroke-linecap="round" />
</g>
		<g transform="matrix(1 0 0 1 64.26 43.04)" id="6CuiTwFXW45YjiGt7niTT"  >
<path style="stroke: rgb(0,0,0); stroke-width: 1; stroke-dasharray: none; stroke-linecap: round; stroke-dashoffset: 0; stroke-linejoin: round; stroke-miterlimit: 10; fill: none; fill-rule: nonzero; opacity: 1;" vector-effect="non-scaling-stroke"  transform=" translate(-212.8, -178.67)" d="M 212.80300572246063 178.67008930213467 L 212.80500572246063 178.67008930213467" stroke-linecap="round" />
</g>
		<g transform="matrix(-0.16 0.09 -0.11 -0.19 9.99 -27.35)" id="IRYO3xaV2QqPvCbZo6bIw"  >
<path style="stroke: rgb(0,0,0); stroke-width: 0; stroke-dasharray: none; stroke-linecap: butt; stroke-dashoffset: 0; stroke-linejoin: miter; stroke-miterlimit: 4; fill: rgb(255,255,255); fill-rule: nonzero; opacity: 1;" vector-effect="non-scaling-stroke"  transform=" translate(0, 0)" d="M -70.72514 33.07742 L -56.54913 30.700399999999995 L -40.996159999999996 26.707619999999995 L -22.979549999999996 23.474819999999994 L -0.9303699999999964 21.466189999999994 L 16.476280000000003 23.314519999999995 L 35.15397 29.088179999999994 L 53.61759 33.73313999999999 L 69.59857 38.45334999999999 L 70.72515999999999 19.33655999999999 L 65.89862 3.2155499999999932 L 60.176159999999996 -6.664510000000007 L 53.738389999999995 -14.532890000000007 L 48.48578 -20.119100000000007 L 42.98578 -24.119100000000007 L 37.73578 -27.619100000000007 L 31.98578 -30.869100000000007 L 24.98578 -33.6191 L 19.40363 -35.8691 L 12.98578 -37.1191 L 6.48578 -38.45333 L -2.26422 -38.45333 L -4.76422 -38.45333 L -9.18089 -38.45333 L -15.59756 -37.1191 L -22.764229999999998 -34.8691 L -28.514229999999998 -32.1191 L -34.01423 -29.119100000000003 L -38.26423 -26.369100000000003 L -43.26423 -23.119100000000003 L -47.01423 -20.119100000000003 L -51.26423 -15.619100000000003 L -56.26423 -11.078980000000003 L -60.01423 -4.619100000000003 L -63.76423 3.2155599999999973 L -66.76423 9.630899999999997 L -68.51423 15.630899999999997 L -69.8918 22.630899999999997 L -70.72513000000001 27.964229999999997 z" stroke-linecap="round" />
</g>
		<g transform="matrix(0.09 -0.05 0.05 0.1 -14.34 -40.1)" id="0Wuq0bwUV-J3fVE6wAg0y"  >
<path style="stroke: rgb(0,0,0); stroke-width: 0; stroke-dasharray: none; stroke-linecap: butt; stroke-dashoffset: 0; stroke-linejoin: miter; stroke-miterlimit: 4; fill: rgb(255,255,255); fill-rule: nonzero; opacity: 1;" vector-effect="non-scaling-stroke"  transform=" translate(0, 0)" d="M -71.53076 35.76538 L -60.81985 33.55616 L -47.81985 33.55616 L -34.81985 30.652179999999998 L -16.403180000000003 27.890649999999997 L 0.000009999999996068709 27.890649999999997 L 18.598009999999995 27.890649999999997 L 33.91144 30.652179999999998 L 51.552 33.55616 L 65.093 35.76538 L 71.53077 35.76538 L 69.91954 22.02451 L 65.093 5.903500000000001 L 59.370540000000005 -3.976559999999999 L 52.932770000000005 -11.84494 L 47.68016000000001 -17.43115 L 42.18016000000001 -21.43115 L 36.93016000000001 -24.93115 L 31.180160000000008 -28.18115 L 24.180160000000008 -30.93115 L 18.59801000000001 -33.18115 L 12.18016000000001 -34.43115 L 5.68016000000001 -35.76538 L -3.0698399999999904 -35.76538 L -5.56983999999999 -35.76538 L -9.98650999999999 -35.76538 L -16.403179999999992 -34.43115 L -23.56984999999999 -32.18115 L -29.31984999999999 -29.431150000000002 L -34.81984999999999 -26.431150000000002 L -39.06984999999999 -23.681150000000002 L -44.06984999999999 -20.431150000000002 L -47.81984999999999 -17.431150000000002 L -52.06984999999999 -12.931150000000002 L -57.06984999999999 -8.391030000000002 L -60.81984999999999 -1.9311500000000024 L -64.56984999999999 5.903509999999998 L -67.56984999999999 12.318849999999998 L -69.31984999999999 18.318849999999998 L -70.69742 25.318849999999998 L -71.53075 30.652179999999998 z" stroke-linecap="round" />
</g>
		<g transform="matrix(0.09 -0.05 0.05 0.1 7.66 -54.03)" id="vLv4vD1f9UET84Pg3d5lK"  >
<path style="stroke: rgb(0,0,0); stroke-width: 0; stroke-dasharray: none; stroke-linecap: butt; stroke-dashoffset: 0; stroke-linejoin: miter; stroke-miterlimit: 4; fill: rgb(255,255,255); fill-rule: nonzero; opacity: 1;" vector-effect="non-scaling-stroke"  transform=" translate(0, 0)" d="M -71.53076 35.76538 L -60.81985 33.55616 L -47.81985 33.55616 L -34.81985 30.652179999999998 L -16.403180000000003 27.890649999999997 L 0.000009999999996068709 27.890649999999997 L 18.598009999999995 27.890649999999997 L 33.91144 30.652179999999998 L 51.552 33.55616 L 65.093 35.76538 L 71.53077 35.76538 L 69.91954 22.02451 L 65.093 5.903500000000001 L 59.370540000000005 -3.976559999999999 L 52.932770000000005 -11.84494 L 47.68016000000001 -17.43115 L 42.18016000000001 -21.43115 L 36.93016000000001 -24.93115 L 31.180160000000008 -28.18115 L 24.180160000000008 -30.93115 L 18.59801000000001 -33.18115 L 12.18016000000001 -34.43115 L 5.68016000000001 -35.76538 L -3.0698399999999904 -35.76538 L -5.56983999999999 -35.76538 L -9.98650999999999 -35.76538 L -16.403179999999992 -34.43115 L -23.56984999999999 -32.18115 L -29.31984999999999 -29.431150000000002 L -34.81984999999999 -26.431150000000002 L -39.06984999999999 -23.681150000000002 L -44.06984999999999 -20.431150000000002 L -47.81984999999999 -17.431150000000002 L -52.06984999999999 -12.931150000000002 L -57.06984999999999 -8.391030000000002 L -60.81984999999999 -1.9311500000000024 L -64.56984999999999 5.903509999999998 L -67.56984999999999 12.318849999999998 L -69.31984999999999 18.318849999999998 L -70.69742 25.318849999999998 L -71.53075 30.652179999999998 z" stroke-linecap="round" />
</g>
</g>
</g>
<g transform="matrix(0.57 0 0 0.57 66.54 591.64)" id="kw-KfJZBvQzCsQaIaASOH"  >
<g style="" vector-effect="non-scaling-stroke"   >
		<g transform="matrix(-1.39 0 0 -1.39 0 0)" id="QQT1w5e3flejqCdPD3PA7"  >
<path style="stroke: rgb(83,40,143); stroke-width: 0; stroke-dasharray: none; stroke-linecap: butt; stroke-dashoffset: 0; stroke-linejoin: miter; stroke-miterlimit: 4; fill: rgb(231,115,182); fill-rule: nonzero; opacity: 1;" vector-effect="non-scaling-stroke"  transform=" translate(0, 0)" d="M 0 -71.53076 C 39.48498 -71.53076 71.53076 -39.48498 71.53076 0 C 71.53076 39.48498 39.48498 71.53076 0 71.53076 C -39.48498 71.53076 -71.53076 39.48498 -71.53076 0 C -71.53076 -39.48498 -39.48498 -71.53076 0 -71.53076 z" stroke-linecap="round" />
</g>
		<g transform="matrix(1 0 0 1 64.26 43.04)" id="42B4KFPcuwwCKbbLkAsCv"  >
<path style="stroke: rgb(0,0,0); stroke-width: 1; stroke-dasharray: none; stroke-linecap: round; stroke-dashoffset: 0; stroke-linejoin: round; stroke-miterlimit: 10; fill: none; fill-rule: nonzero; opacity: 1;" vector-effect="non-scaling-stroke"  transform=" translate(-212.8, -178.67)" d="M 212.80300572246063 178.67008930213467 L 212.80500572246063 178.67008930213467" stroke-linecap="round" />
</g>
		<g transform="matrix(0.08 -0.08 0.09 0.09 -37.84 -23.9)" id="ts9sg3_xz6yKOkKlLjDWw"  >
<path style="stroke: rgb(0,0,0); stroke-width: 0; stroke-dasharray: none; stroke-linecap: butt; stroke-dashoffset: 0; stroke-linejoin: miter; stroke-miterlimit: 4; fill: rgb(255,255,255); fill-rule: nonzero; opacity: 1;" vector-effect="non-scaling-stroke"  transform=" translate(0, 0)" d="M -71.53076 35.76538 L 1.8824400000000026 35.76538 L 71.53076 35.76538 L 69.91953 22.02451 L 65.09299 5.903500000000001 L 59.37053 -3.976559999999999 L 52.93276 -11.84494 L 47.680150000000005 -17.43115 L 42.180150000000005 -21.43115 L 36.930150000000005 -24.93115 L 31.180150000000005 -28.18115 L 24.180150000000005 -30.93115 L 18.598000000000006 -33.18115 L 12.180150000000006 -34.43115 L 5.6801500000000065 -35.76538 L -3.0698499999999935 -35.76538 L -5.5698499999999935 -35.76538 L -9.986519999999993 -35.76538 L -16.403189999999995 -34.43115 L -23.569859999999995 -32.18115 L -29.319859999999995 -29.431150000000002 L -34.81985999999999 -26.431150000000002 L -39.06985999999999 -23.681150000000002 L -44.06985999999999 -20.431150000000002 L -47.81985999999999 -17.431150000000002 L -52.06985999999999 -12.931150000000002 L -57.06985999999999 -8.391030000000002 L -60.81985999999999 -1.9311500000000024 L -64.56985999999999 5.903509999999998 L -67.56985999999999 12.318849999999998 L -69.31985999999999 18.318849999999998 L -70.69743 25.318849999999998 L -71.53076 30.652179999999998 z" stroke-linecap="round" />
</g>
		<g transform="matrix(-0.13 0.13 -0.16 -0.16 -31.79 2.6)" id="Tv9TcqZ8kqGTRpbtE2PAI"  >
<path style="stroke: rgb(0,0,0); stroke-width: 0; stroke-dasharray: none; stroke-linecap: butt; stroke-dashoffset: 0; stroke-linejoin: miter; stroke-miterlimit: 4; fill: rgb(255,255,255); fill-rule: nonzero; opacity: 1;" vector-effect="non-scaling-stroke"  transform=" translate(0, 0)" d="M -70.72514 33.07742 L -56.54913 30.700399999999995 L -40.996159999999996 26.707619999999995 L -22.979549999999996 23.474819999999994 L -0.9303699999999964 21.466189999999994 L 16.476280000000003 23.314519999999995 L 35.15397 29.088179999999994 L 53.61759 33.73313999999999 L 69.59857 38.45334999999999 L 70.72515999999999 19.33655999999999 L 65.89862 3.2155499999999932 L 60.176159999999996 -6.664510000000007 L 53.738389999999995 -14.532890000000007 L 48.48578 -20.119100000000007 L 42.98578 -24.119100000000007 L 37.73578 -27.619100000000007 L 31.98578 -30.869100000000007 L 24.98578 -33.6191 L 19.40363 -35.8691 L 12.98578 -37.1191 L 6.48578 -38.45333 L -2.26422 -38.45333 L -4.76422 -38.45333 L -9.18089 -38.45333 L -15.59756 -37.1191 L -22.764229999999998 -34.8691 L -28.514229999999998 -32.1191 L -34.01423 -29.119100000000003 L -38.26423 -26.369100000000003 L -43.26423 -23.119100000000003 L -47.01423 -20.119100000000003 L -51.26423 -15.619100000000003 L -56.26423 -11.078980000000003 L -60.01423 -4.619100000000003 L -63.76423 3.2155599999999973 L -66.76423 9.630899999999997 L -68.51423 15.630899999999997 L -69.8918 22.630899999999997 L -70.72513000000001 27.964229999999997 z" stroke-linecap="round" />
</g>
		<g transform="matrix(0.08 -0.08 0.09 0.09 -56.58 -6.25)" id="FwlMXDVJV-_uyoGXpQtfG"  >
<path style="stroke: rgb(0,0,0); stroke-width: 0; stroke-dasharray: none; stroke-linecap: butt; stroke-dashoffset: 0; stroke-linejoin: miter; stroke-miterlimit: 4; fill: rgb(255,255,255); fill-rule: nonzero; opacity: 1;" vector-effect="non-scaling-stroke"  transform=" translate(0, 0)" d="M -71.53076 35.76538 L 1.8824400000000026 35.76538 L 71.53076 35.76538 L 69.91953 22.02451 L 65.09299 5.903500000000001 L 59.37053 -3.976559999999999 L 52.93276 -11.84494 L 47.680150000000005 -17.43115 L 42.180150000000005 -21.43115 L 36.930150000000005 -24.93115 L 31.180150000000005 -28.18115 L 24.180150000000005 -30.93115 L 18.598000000000006 -33.18115 L 12.180150000000006 -34.43115 L 5.6801500000000065 -35.76538 L -3.0698499999999935 -35.76538 L -5.5698499999999935 -35.76538 L -9.986519999999993 -35.76538 L -16.403189999999995 -34.43115 L -23.569859999999995 -32.18115 L -29.319859999999995 -29.431150000000002 L -34.81985999999999 -26.431150000000002 L -39.06985999999999 -23.681150000000002 L -44.06985999999999 -20.431150000000002 L -47.81985999999999 -17.431150000000002 L -52.06985999999999 -12.931150000000002 L -57.06985999999999 -8.391030000000002 L -60.81985999999999 -1.9311500000000024 L -64.56985999999999 5.903509999999998 L -67.56985999999999 12.318849999999998 L -69.31985999999999 18.318849999999998 L -70.69743 25.318849999999998 L -71.53076 30.652179999999998 z" stroke-linecap="round" />
</g>
</g>
</g>
<g transform="matrix(0.35 0 0 0.35 710.17 558.49)" id="3Z3zCsT4COLoV10X21XTh"  >
<g style="" vector-effect="non-scaling-stroke"   >
		<g transform="matrix(1 0 0 1 0 0)" id="ozyYmG-zKXVLZzeJOkfU-"  >
<path style="stroke: rgb(0,0,0); stroke-width: 0; stroke-dasharray: none; stroke-linecap: butt; stroke-dashoffset: 0; stroke-linejoin: miter; stroke-miterlimit: 4; fill: rgb(115,231,191); fill-rule: nonzero; opacity: 1;" vector-effect="non-scaling-stroke"  transform=" translate(0, 0)" d="M -73.23867 -94.02375 L 72.73867 -94.02375 L 73.23867 -34.27375000000001 L 72.73867 29.96154 L 71.48867 38.45173 L 69.11367 47.07673 L 66.86367 53.57673 L 62.61367 60.82673 L 56.73867 67.45173 L 51.23867 72.95173 L 44.36367 78.45173 C 44.36367 78.45173 40.61367 81.17048 39.36367 82.07673 C 38.11367 82.98298 35.38968 84.45173 35.38968 84.45173 L 26.76468 88.70173 L 19.88968 90.95173 L 11.764679999999998 92.82673 L 5.3896799999999985 94.02374999999999 L 0.39453999999999834 94.02374999999999 L -3.4853200000000015 94.02374999999999 L -11.485320000000002 92.32673 L -21.48532 89.82673 L -28.23532 87.45173 L -35.11032 83.95173 L -41.98532 79.45173 L -48.73532 74.45173 L -54.11032 69.70173 L -57.48532 66.45173 L -63.27055 59.45173 L -70.27055 49.82673 L -72.61367 44.95173 z" stroke-linecap="round" />
</g>
		<g transform="matrix(0.29 0 0 0.34 -0.92 10.98)" id="NCbdVgUx9mnKq5u39DgEV"  >
<path style="stroke: rgb(0,0,0); stroke-width: 0; stroke-dasharray: none; stroke-linecap: butt; stroke-dashoffset: 0; stroke-linejoin: miter; stroke-miterlimit: 4; fill: rgb(255,255,255); fill-rule: nonzero; opacity: 1;" vector-effect="non-scaling-stroke"  transform=" translate(0, 0)" d="M -70.72514 33.07742 L -56.54913 30.700399999999995 L -40.996159999999996 26.707619999999995 L -22.979549999999996 23.474819999999994 L -0.9303699999999964 21.466189999999994 L 16.476280000000003 23.314519999999995 L 35.15397 29.088179999999994 L 53.61759 33.73313999999999 L 69.59857 38.45334999999999 L 70.72515999999999 19.33655999999999 L 65.89862 3.2155499999999932 L 60.176159999999996 -6.664510000000007 L 53.738389999999995 -14.532890000000007 L 48.48578 -20.119100000000007 L 42.98578 -24.119100000000007 L 37.73578 -27.619100000000007 L 31.98578 -30.869100000000007 L 24.98578 -33.6191 L 19.40363 -35.8691 L 12.98578 -37.1191 L 6.48578 -38.45333 L -2.26422 -38.45333 L -4.76422 -38.45333 L -9.18089 -38.45333 L -15.59756 -37.1191 L -22.764229999999998 -34.8691 L -28.514229999999998 -32.1191 L -34.01423 -29.119100000000003 L -38.26423 -26.369100000000003 L -43.26423 -23.119100000000003 L -47.01423 -20.119100000000003 L -51.26423 -15.619100000000003 L -56.26423 -11.078980000000003 L -60.01423 -4.619100000000003 L -63.76423 3.2155599999999973 L -66.76423 9.630899999999997 L -68.51423 15.630899999999997 L -69.8918 22.630899999999997 L -70.72513000000001 27.964229999999997 z" stroke-linecap="round" />
</g>
		<g transform="matrix(-0.14 0 0 -0.17 -21.11 42.44)" id="TSJmV22s--ijJtVvHQ5ei"  >
<path style="stroke: rgb(0,0,0); stroke-width: 0; stroke-dasharray: none; stroke-linecap: butt; stroke-dashoffset: 0; stroke-linejoin: miter; stroke-miterlimit: 4; fill: rgb(255,255,255); fill-rule: nonzero; opacity: 1;" vector-effect="non-scaling-stroke"  transform=" translate(0, 0)" d="M -71.53076 36.89871 L -64.56985 36.89871 L -57.9395 34.63204 L -47.81985 31.609820000000003 L -39.06985 29.518840000000004 L -29.319850000000002 26.118840000000006 L -20.672150000000002 24.185510000000004 L -9.986520000000002 24.185510000000004 L 2.775369999999997 24.185510000000004 L 12.180149999999998 24.185510000000004 L 25.995869999999996 26.118840000000006 L 36.93015 27.832040000000006 L 47.68015 29.518840000000008 L 56.80193 31.609820000000006 L 65.09299 34.63204 L 71.53076 34.63204 L 69.91953 20.891170000000002 L 65.09299 4.770160000000004 L 59.37053 -5.109899999999996 L 52.93276 -12.978279999999996 L 47.680150000000005 -18.564489999999996 L 42.180150000000005 -22.564489999999996 L 36.930150000000005 -26.064489999999996 L 31.180150000000005 -29.314489999999996 L 24.180150000000005 -32.06448999999999 L 18.598000000000006 -34.31448999999999 L 12.180150000000006 -35.56448999999999 L 5.6801500000000065 -36.89871999999999 L -3.0698499999999935 -36.89871999999999 L -5.5698499999999935 -36.89871999999999 L -9.986519999999993 -36.89871999999999 L -16.403189999999995 -35.56448999999999 L -23.569859999999995 -33.31448999999999 L -29.319859999999995 -30.564489999999992 L -34.81985999999999 -27.564489999999992 L -39.06985999999999 -24.814489999999992 L -44.06985999999999 -21.564489999999992 L -47.81985999999999 -18.564489999999992 L -52.06985999999999 -14.064489999999992 L -57.06985999999999 -9.524369999999992 L -60.81985999999999 -3.064489999999992 L -64.56985999999999 4.770170000000008 L -67.56985999999999 11.185510000000008 L -69.31985999999999 17.185510000000008 L -70.69743 24.185510000000008 L -71.53076 29.518840000000008 z" stroke-linecap="round" />
</g>
		<g transform="matrix(-0.14 0 0 -0.17 19.27 42.27)" id="pk0mg9BtPN3HNk26iz6J5"  >
<path style="stroke: rgb(0,0,0); stroke-width: 0; stroke-dasharray: none; stroke-linecap: butt; stroke-dashoffset: 0; stroke-linejoin: miter; stroke-miterlimit: 4; fill: rgb(255,255,255); fill-rule: nonzero; opacity: 1;" vector-effect="non-scaling-stroke"  transform=" translate(0, 0)" d="M -71.53076 36.89871 L -64.56985 36.89871 L -57.9395 34.63204 L -47.81985 31.609820000000003 L -39.06985 29.518840000000004 L -29.319850000000002 26.118840000000006 L -20.672150000000002 24.185510000000004 L -9.986520000000002 24.185510000000004 L 2.775369999999997 24.185510000000004 L 12.180149999999998 24.185510000000004 L 25.995869999999996 26.118840000000006 L 36.93015 27.832040000000006 L 47.68015 29.518840000000008 L 56.80193 31.609820000000006 L 65.09299 34.63204 L 71.53076 34.63204 L 69.91953 20.891170000000002 L 65.09299 4.770160000000004 L 59.37053 -5.109899999999996 L 52.93276 -12.978279999999996 L 47.680150000000005 -18.564489999999996 L 42.180150000000005 -22.564489999999996 L 36.930150000000005 -26.064489999999996 L 31.180150000000005 -29.314489999999996 L 24.180150000000005 -32.06448999999999 L 18.598000000000006 -34.31448999999999 L 12.180150000000006 -35.56448999999999 L 5.6801500000000065 -36.89871999999999 L -3.0698499999999935 -36.89871999999999 L -5.5698499999999935 -36.89871999999999 L -9.986519999999993 -36.89871999999999 L -16.403189999999995 -35.56448999999999 L -23.569859999999995 -33.31448999999999 L -29.319859999999995 -30.564489999999992 L -34.81985999999999 -27.564489999999992 L -39.06985999999999 -24.814489999999992 L -44.06985999999999 -21.564489999999992 L -47.81985999999999 -18.564489999999992 L -52.06985999999999 -14.064489999999992 L -57.06985999999999 -9.524369999999992 L -60.81985999999999 -3.064489999999992 L -64.56985999999999 4.770170000000008 L -67.56985999999999 11.185510000000008 L -69.31985999999999 17.185510000000008 L -70.69743 24.185510000000008 L -71.53076 29.518840000000008 z" stroke-linecap="round" />
</g>
</g>
</g>
</svg>