<?xml version="1.0" encoding="UTF-8" standalone="no" ?>
<!DOCTYPE svg PUBLIC "-//W3C//DTD SVG 1.1//EN" "http://www.w3.org/Graphics/SVG/1.1/DTD/svg11.dtd">
<svg xmlns="http://www.w3.org/2000/svg" xmlns:xlink="http://www.w3.org/1999/xlink" version="1.1" width="200" height="200" viewBox="0 0 200 200" xml:space="preserve">
<desc>Created with Fabric.js 4.6.0</desc>
<defs>
</defs>
<g transform="matrix(0.57 0 0 0.57 118.15 113.16)" id="LlwLiMMTDw96wPDdU0JdG"  >
<g style="" vector-effect="non-scaling-stroke"   >
		<g transform="matrix(-1.39 0 0 -1.39 0 0)" id="yavVRiRsbckFtV98ZnDg2"  >
<path style="stroke: rgb(83,40,143); stroke-width: 0; stroke-dasharray: none; stroke-linecap: butt; stroke-dashoffset: 0; stroke-linejoin: miter; stroke-miterlimit: 4; fill: rgb(231,115,182); fill-rule: nonzero; opacity: 1;" vector-effect="non-scaling-stroke"  transform=" translate(0, 0)" d="M 0 -71.53076 C 39.48498 -71.53076 71.53076 -39.48498 71.53076 0 C 71.53076 39.48498 39.48498 71.53076 0 71.53076 C -39.48498 71.53076 -71.53076 39.48498 -71.53076 0 C -71.53076 -39.48498 -39.48498 -71.53076 0 -71.53076 z" stroke-linecap="round" />
</g>
		<g transform="matrix(1 0 0 1 64.26 43.04)" id="AUmcfYwAsdIcgSe08Flh5"  >
<path style="stroke: rgb(0,0,0); stroke-width: 1; stroke-dasharray: none; stroke-linecap: round; stroke-dashoffset: 0; stroke-linejoin: round; stroke-miterlimit: 10; fill: none; fill-rule: nonzero; opacity: 1;" vector-effect="non-scaling-stroke"  transform=" translate(-212.8, -178.67)" d="M 212.80300572246063 178.67008930213467 L 212.80500572246063 178.67008930213467" stroke-linecap="round" />
</g>
		<g transform="matrix(0.08 -0.08 0.09 0.09 -37.84 -23.9)" id="6QJtwe0kPrYByAYpEAGlR"  >
<path style="stroke: rgb(0,0,0); stroke-width: 0; stroke-dasharray: none; stroke-linecap: butt; stroke-dashoffset: 0; stroke-linejoin: miter; stroke-miterlimit: 4; fill: rgb(255,255,255); fill-rule: nonzero; opacity: 1;" vector-effect="non-scaling-stroke"  transform=" translate(0, 0)" d="M -71.53076 35.76538 L 1.8824400000000026 35.76538 L 71.53076 35.76538 L 69.91953 22.02451 L 65.09299 5.903500000000001 L 59.37053 -3.976559999999999 L 52.93276 -11.84494 L 47.680150000000005 -17.43115 L 42.180150000000005 -21.43115 L 36.930150000000005 -24.93115 L 31.180150000000005 -28.18115 L 24.180150000000005 -30.93115 L 18.598000000000006 -33.18115 L 12.180150000000006 -34.43115 L 5.6801500000000065 -35.76538 L -3.0698499999999935 -35.76538 L -5.5698499999999935 -35.76538 L -9.986519999999993 -35.76538 L -16.403189999999995 -34.43115 L -23.569859999999995 -32.18115 L -29.319859999999995 -29.431150000000002 L -34.81985999999999 -26.431150000000002 L -39.06985999999999 -23.681150000000002 L -44.06985999999999 -20.431150000000002 L -47.81985999999999 -17.431150000000002 L -52.06985999999999 -12.931150000000002 L -57.06985999999999 -8.391030000000002 L -60.81985999999999 -1.9311500000000024 L -64.56985999999999 5.903509999999998 L -67.56985999999999 12.318849999999998 L -69.31985999999999 18.318849999999998 L -70.69743 25.318849999999998 L -71.53076 30.652179999999998 z" stroke-linecap="round" />
</g>
		<g transform="matrix(-0.13 0.13 -0.16 -0.16 -31.79 2.6)" id="KlCmGxVoBw48-juz74Zsk"  >
<path style="stroke: rgb(0,0,0); stroke-width: 0; stroke-dasharray: none; stroke-linecap: butt; stroke-dashoffset: 0; stroke-linejoin: miter; stroke-miterlimit: 4; fill: rgb(255,255,255); fill-rule: nonzero; opacity: 1;" vector-effect="non-scaling-stroke"  transform=" translate(0, 0)" d="M -70.72514 33.07742 L -56.54913 30.700399999999995 L -40.996159999999996 26.707619999999995 L -22.979549999999996 23.474819999999994 L -0.9303699999999964 21.466189999999994 L 16.476280000000003 23.314519999999995 L 35.15397 29.088179999999994 L 53.61759 33.73313999999999 L 69.59857 38.45334999999999 L 70.72515999999999 19.33655999999999 L 65.89862 3.2155499999999932 L 60.176159999999996 -6.664510000000007 L 53.738389999999995 -14.532890000000007 L 48.48578 -20.119100000000007 L 42.98578 -24.119100000000007 L 37.73578 -27.619100000000007 L 31.98578 -30.869100000000007 L 24.98578 -33.6191 L 19.40363 -35.8691 L 12.98578 -37.1191 L 6.48578 -38.45333 L -2.26422 -38.45333 L -4.76422 -38.45333 L -9.18089 -38.45333 L -15.59756 -37.1191 L -22.764229999999998 -34.8691 L -28.514229999999998 -32.1191 L -34.01423 -29.119100000000003 L -38.26423 -26.369100000000003 L -43.26423 -23.119100000000003 L -47.01423 -20.119100000000003 L -51.26423 -15.619100000000003 L -56.26423 -11.078980000000003 L -60.01423 -4.619100000000003 L -63.76423 3.2155599999999973 L -66.76423 9.630899999999997 L -68.51423 15.630899999999997 L -69.8918 22.630899999999997 L -70.72513000000001 27.964229999999997 z" stroke-linecap="round" />
</g>
		<g transform="matrix(0.08 -0.08 0.09 0.09 -56.58 -6.25)" id="G3l0Goe4iFdoaYjuAn1B_"  >
<path style="stroke: rgb(0,0,0); stroke-width: 0; stroke-dasharray: none; stroke-linecap: butt; stroke-dashoffset: 0; stroke-linejoin: miter; stroke-miterlimit: 4; fill: rgb(255,255,255); fill-rule: nonzero; opacity: 1;" vector-effect="non-scaling-stroke"  transform=" translate(0, 0)" d="M -71.53076 35.76538 L 1.8824400000000026 35.76538 L 71.53076 35.76538 L 69.91953 22.02451 L 65.09299 5.903500000000001 L 59.37053 -3.976559999999999 L 52.93276 -11.84494 L 47.680150000000005 -17.43115 L 42.180150000000005 -21.43115 L 36.930150000000005 -24.93115 L 31.180150000000005 -28.18115 L 24.180150000000005 -30.93115 L 18.598000000000006 -33.18115 L 12.180150000000006 -34.43115 L 5.6801500000000065 -35.76538 L -3.0698499999999935 -35.76538 L -5.5698499999999935 -35.76538 L -9.986519999999993 -35.76538 L -16.403189999999995 -34.43115 L -23.569859999999995 -32.18115 L -29.319859999999995 -29.431150000000002 L -34.81985999999999 -26.431150000000002 L -39.06985999999999 -23.681150000000002 L -44.06985999999999 -20.431150000000002 L -47.81985999999999 -17.431150000000002 L -52.06985999999999 -12.931150000000002 L -57.06985999999999 -8.391030000000002 L -60.81985999999999 -1.9311500000000024 L -64.56985999999999 5.903509999999998 L -67.56985999999999 12.318849999999998 L -69.31985999999999 18.318849999999998 L -70.69743 25.318849999999998 L -71.53076 30.652179999999998 z" stroke-linecap="round" />
</g>
</g>
</g>
<g transform="matrix(0.37 0 0 0.37 61.97 56.98)" id="S7Rg2q67mw5JCG7qrFIw_"  >
<g style="" vector-effect="non-scaling-stroke"   >
		<g transform="matrix(-1.39 0 0 -1.39 0 0)" id="nI4jlKXCC1enla50VzoU7"  >
<path style="stroke: rgb(83,40,143); stroke-width: 0; stroke-dasharray: none; stroke-linecap: butt; stroke-dashoffset: 0; stroke-linejoin: miter; stroke-miterlimit: 4; fill: rgb(255,218,18); fill-rule: nonzero; opacity: 1;" vector-effect="non-scaling-stroke"  transform=" translate(0, 0)" d="M 0 -71.53076 C 39.48498 -71.53076 71.53076 -39.48498 71.53076 0 C 71.53076 39.48498 39.48498 71.53076 0 71.53076 C -39.48498 71.53076 -71.53076 39.48498 -71.53076 0 C -71.53076 -39.48498 -39.48498 -71.53076 0 -71.53076 z" stroke-linecap="round" />
</g>
		<g transform="matrix(1 0 0 1 64.26 43.04)" id="0f82IPgy4FgX-ecupN8KF"  >
<path style="stroke: rgb(0,0,0); stroke-width: 1; stroke-dasharray: none; stroke-linecap: round; stroke-dashoffset: 0; stroke-linejoin: round; stroke-miterlimit: 10; fill: none; fill-rule: nonzero; opacity: 1;" vector-effect="non-scaling-stroke"  transform=" translate(-212.8, -178.67)" d="M 212.80300572246063 178.67008930213467 L 212.80500572246063 178.67008930213467" stroke-linecap="round" />
</g>
		<g transform="matrix(0.2 0 0 0.24 54.69 27.72)" id="H_bHwUL0GAYOsFycwrGay"  >
<path style="stroke: rgb(0,0,0); stroke-width: 0; stroke-dasharray: none; stroke-linecap: butt; stroke-dashoffset: 0; stroke-linejoin: miter; stroke-miterlimit: 4; fill: rgb(255,255,255); fill-rule: nonzero; opacity: 1;" vector-effect="non-scaling-stroke"  transform=" translate(0, 0)" d="M -71.53076 35.76538 L -60.81985 33.55616 L -47.81985 33.55616 L -34.81985 30.652179999999998 L -16.403180000000003 27.890649999999997 L 0.000009999999996068709 27.890649999999997 L 18.598009999999995 27.890649999999997 L 33.91144 30.652179999999998 L 51.552 33.55616 L 65.093 35.76538 L 71.53077 35.76538 L 69.91954 22.02451 L 65.093 5.903500000000001 L 59.370540000000005 -3.976559999999999 L 52.932770000000005 -11.84494 L 47.68016000000001 -17.43115 L 42.18016000000001 -21.43115 L 36.93016000000001 -24.93115 L 31.180160000000008 -28.18115 L 24.180160000000008 -30.93115 L 18.59801000000001 -33.18115 L 12.18016000000001 -34.43115 L 5.68016000000001 -35.76538 L -3.0698399999999904 -35.76538 L -5.56983999999999 -35.76538 L -9.98650999999999 -35.76538 L -16.403179999999992 -34.43115 L -23.56984999999999 -32.18115 L -29.31984999999999 -29.431150000000002 L -34.81984999999999 -26.431150000000002 L -39.06984999999999 -23.681150000000002 L -44.06984999999999 -20.431150000000002 L -47.81984999999999 -17.431150000000002 L -52.06984999999999 -12.931150000000002 L -57.06984999999999 -8.391030000000002 L -60.81984999999999 -1.9311500000000024 L -64.56984999999999 5.903509999999998 L -67.56984999999999 12.318849999999998 L -69.31984999999999 18.318849999999998 L -70.69742 25.318849999999998 L -71.53075 30.652179999999998 z" stroke-linecap="round" />
</g>
		<g transform="matrix(-0.33 0 0 -0.39 30.95 67.89)" id="eIlbsi1ARX3EFO9WFXK1m"  >
<path style="stroke: rgb(0,0,0); stroke-width: 0; stroke-dasharray: none; stroke-linecap: butt; stroke-dashoffset: 0; stroke-linejoin: miter; stroke-miterlimit: 4; fill: rgb(255,255,255); fill-rule: nonzero; opacity: 1;" vector-effect="non-scaling-stroke"  transform=" translate(0, 0)" d="M -70.72514 33.07742 L -56.54913 30.700399999999995 L -40.996159999999996 26.707619999999995 L -22.979549999999996 23.474819999999994 L -0.9303699999999964 21.466189999999994 L 16.476280000000003 23.314519999999995 L 35.15397 29.088179999999994 L 53.61759 33.73313999999999 L 69.59857 38.45334999999999 L 70.72515999999999 19.33655999999999 L 65.89862 3.2155499999999932 L 60.176159999999996 -6.664510000000007 L 53.738389999999995 -14.532890000000007 L 48.48578 -20.119100000000007 L 42.98578 -24.119100000000007 L 37.73578 -27.619100000000007 L 31.98578 -30.869100000000007 L 24.98578 -33.6191 L 19.40363 -35.8691 L 12.98578 -37.1191 L 6.48578 -38.45333 L -2.26422 -38.45333 L -4.76422 -38.45333 L -9.18089 -38.45333 L -15.59756 -37.1191 L -22.764229999999998 -34.8691 L -28.514229999999998 -32.1191 L -34.01423 -29.119100000000003 L -38.26423 -26.369100000000003 L -43.26423 -23.119100000000003 L -47.01423 -20.119100000000003 L -51.26423 -15.619100000000003 L -56.26423 -11.078980000000003 L -60.01423 -4.619100000000003 L -63.76423 3.2155599999999973 L -66.76423 9.630899999999997 L -68.51423 15.630899999999997 L -69.8918 22.630899999999997 L -70.72513000000001 27.964229999999997 z" stroke-linecap="round" />
</g>
		<g transform="matrix(0.2 0 0 0.24 12.69 27.1)" id="Pj53ITBtNGfTpXP9MWGww"  >
<path style="stroke: rgb(0,0,0); stroke-width: 0; stroke-dasharray: none; stroke-linecap: butt; stroke-dashoffset: 0; stroke-linejoin: miter; stroke-miterlimit: 4; fill: rgb(255,255,255); fill-rule: nonzero; opacity: 1;" vector-effect="non-scaling-stroke"  transform=" translate(0, 0)" d="M -71.53076 35.76538 L -60.81985 33.55616 L -47.81985 33.55616 L -34.81985 30.652179999999998 L -16.403180000000003 27.890649999999997 L 0.000009999999996068709 27.890649999999997 L 18.598009999999995 27.890649999999997 L 33.91144 30.652179999999998 L 51.552 33.55616 L 65.093 35.76538 L 71.53077 35.76538 L 69.91954 22.02451 L 65.093 5.903500000000001 L 59.370540000000005 -3.976559999999999 L 52.932770000000005 -11.84494 L 47.68016000000001 -17.43115 L 42.18016000000001 -21.43115 L 36.93016000000001 -24.93115 L 31.180160000000008 -28.18115 L 24.180160000000008 -30.93115 L 18.59801000000001 -33.18115 L 12.18016000000001 -34.43115 L 5.68016000000001 -35.76538 L -3.0698399999999904 -35.76538 L -5.56983999999999 -35.76538 L -9.98650999999999 -35.76538 L -16.403179999999992 -34.43115 L -23.56984999999999 -32.18115 L -29.31984999999999 -29.431150000000002 L -34.81984999999999 -26.431150000000002 L -39.06984999999999 -23.681150000000002 L -44.06984999999999 -20.431150000000002 L -47.81984999999999 -17.431150000000002 L -52.06984999999999 -12.931150000000002 L -57.06984999999999 -8.391030000000002 L -60.81984999999999 -1.9311500000000024 L -64.56984999999999 5.903509999999998 L -67.56984999999999 12.318849999999998 L -69.31984999999999 18.318849999999998 L -70.69742 25.318849999999998 L -71.53075 30.652179999999998 z" stroke-linecap="round" />
</g>
</g>
</g>
</svg>